# xmcd
#
# Track frame offsets: 
#        150
#        23735
#        51309
#        68914
#        90811
#        113400
#        138458
#        163066
#        188268
#        213599
#        233917
#        257275
#
# Disc length: 3687 seconds
#
# Revision: 0
# Processed by: cddbd v1.5.2PL0 Copyright (c) Steve Scherf et al.
# Submitted via: ExactAudioCopy v1.0b3
#
DISCID=920e650c
DTITLE=Mika Goedrijk - Naked
DYEAR=2012
DGENRE=Industrial
TTITLE0=Open
TTITLE1=Waiting Room
TTITLE2=Desert Snow
TTITLE3=Nowhere
TTITLE4=(Life in) Rerun
TTITLE5=Highways
TTITLE6=King Rat
TTITLE7=L'Enfer Blanc
TTITLE8=Turmoil
TTITLE9=Rattler
TTITLE10=Clockwork
TTITLE11=Stonewall
EXTD=
EXTT0=
EXTT1=
EXTT2=
EXTT3=
EXTT4=
EXTT5=
EXTT6=
EXTT7=
EXTT8=
EXTT9=
EXTT10=
EXTT11=
PLAYORDER=
